PathFileType	4	(X/Y/Z)	D:\TRACE\v60_Jaco2_6-2-23\BothDRS_Motion3_7-v60.trc
DataRate	CameraRate	NumFrames	NumMarkers	Units	OrigDataRate	OrigDataStartFrame	OrigNumFrames
100.00	100.00	      38	9	mm	100.00	1751	      7000
Frame#	Time	front left toe			Front right toe			aft left toe			aft right toe			Arm			FL body			FR body			AL Body			AR Body			
		X1	Y1	Z1	X2	Y2	Z2	X3	Y3	Z3	X4	Y4	Z4	X5	Y5	Z5	X6	Y6	Z6	X7	Y7	Z7	X8	Y8	Z8	X9	Y9	Z9	

1751	17.500	-105.95103	10.87860	-164.51982	265.72311	103.11957	-177.68459	-110.27619	111.57254	435.52084	260.14178	17.66147	462.65320	129.73564	1091.67700	-580.52930	6.00451	508.54391	-346.71515	164.68573	500.58401	-343.00314	-7.83255	566.96863	595.72064	144.34172	550.02014	599.75476	
1752	17.510	-106.25428	10.84349	-164.60979	266.31705	112.56242	-178.65234	-110.50533	120.78532	434.28537	259.69284	17.78703	462.51221	128.35637	1091.28577	-581.68079	5.19275	508.50763	-347.95255	164.04268	500.36850	-343.92621	-7.78167	566.37628	594.75671	144.54176	549.55560	598.75781	
1753	17.520	-106.56418	10.61162	-164.78188	265.47833	120.39207	-180.17793	-111.18160	129.65152	432.95880	259.55148	17.90545	462.34308	127.55277	1090.72522	-582.36920	4.61420	508.29391	-348.67346	163.53847	500.10031	-344.88507	-8.09550	565.99670	594.09930	142.61407	549.84833	597.96973	
1754	17.530	-106.72595	10.40941	-164.85323	265.08508	127.28664	-181.57007	-111.63427	136.96307	431.92804	259.60025	18.05709	462.30743	126.80289	1090.11646	-583.63055	4.11163	507.93369	-349.50433	162.82835	499.79138	-345.64478	-7.93769	566.41211	593.85944	144.65096	549.24890	596.95428	
1755	17.540	-106.93274	10.27900	-164.79460	266.70847	134.34561	-182.33122	-112.10680	143.05115	430.43805	259.55133	18.26061	462.18600	126.34884	1089.87012	-584.63379	3.65148	507.40634	-350.07169	161.40913	499.70862	-346.47250	-7.77110	566.52155	593.03186	144.29955	549.39130	595.91510	
1756	17.550	-107.08889	10.17815	-164.86546	267.56982	139.28284	-183.92337	-113.15132	148.21333	428.81686	259.45102	18.34551	461.98975	125.73391	1089.93030	-585.94519	2.82019	507.07925	-350.98373	160.78314	499.50677	-347.35983	-7.88738	566.83563	592.28809	144.71877	549.78638	594.93219	
1757	17.560	-107.18346	10.14591	-164.98198	268.81860	142.09221	-185.40134	-113.71677	149.78581	428.24881	258.87036	17.39273	460.98203	124.83604	1089.89319	-587.23462	2.20761	506.89655	-352.00500	160.69890	499.37735	-348.81198	-7.15198	567.40076	591.33197	145.40335	550.27051	593.44666	
1758	17.570	-107.39421	10.07130	-165.14688	270.10788	140.36528	-185.53677	-114.34740	148.74164	427.64420	258.96918	18.36147	461.54309	123.65452	1089.86426	-588.39032	1.50681	506.90738	-352.89352	160.43538	499.09134	-349.84201	-6.84975	567.87213	590.16608	145.64583	551.01611	592.60016	
1759	17.580	-107.60487	9.86675	-165.25307	269.27808	136.67429	-187.20735	-113.97546	145.75545	427.72073	258.63712	18.51329	461.25748	122.25511	1089.66724	-590.02332	0.93065	506.78973	-354.05664	158.80396	499.40942	-350.73764	-6.34474	568.21216	589.02917	143.34019	551.89404	591.57196	
1760	17.590	-107.70882	9.71892	-165.24142	270.36304	132.50276	-187.46655	-113.21542	141.66415	427.77597	258.51031	18.93016	461.16025	121.08717	1089.13684	-591.53491	0.95516	506.28857	-354.63712	158.56479	499.10571	-351.98053	-6.46180	568.48389	588.04938	145.69948	551.86230	590.43970	
1761	17.600	-107.80252	9.58834	-165.45044	270.25058	127.35298	-188.64941	-113.16093	137.61920	427.79822	258.42383	19.38989	460.89600	119.78513	1088.53906	-593.38763	0.28260	506.40845	-355.97781	158.81702	499.00931	-353.28729	-5.73336	568.94135	587.38629	146.66148	552.10767	589.30835	
1762	17.610	-107.93108	9.59569	-165.58675	270.55017	121.65273	-189.91145	-111.85291	132.22108	427.22589	258.30557	19.74181	460.70703	118.33951	1088.19592	-594.86346	-0.10472	506.11722	-356.81155	158.49680	498.81265	-354.37106	-5.71087	569.13300	585.67816	147.11667	552.75671	587.75049	
1763	17.620	-108.09093	9.52407	-165.74739	270.37387	115.47469	-191.81631	-112.07582	126.96886	426.33160	258.40485	19.82936	460.59396	117.26881	1087.59949	-596.58893	-0.61895	505.83783	-358.27933	157.89787	498.72562	-356.19229	-4.97617	569.48474	584.67230	146.92934	553.27972	586.41937	
1764	17.630	-108.33955	9.24248	-165.81290	271.01276	109.22451	-194.12239	-111.75220	120.33462	425.46042	258.27820	19.87167	460.44473	116.23177	1087.29565	-598.16547	-1.29507	505.28610	-359.41379	157.43163	498.40192	-357.25925	-4.42274	569.57727	583.27661	147.02426	553.55945	585.29333	
1765	17.640	-108.43646	9.06291	-165.78508	271.47946	102.42285	-196.62488	-111.57841	113.37379	423.81995	258.30463	19.99290	460.19223	115.32579	1086.77185	-599.91364	-1.68432	504.82584	-360.67346	156.80847	497.74948	-358.49359	-4.08770	569.75873	582.10730	147.87502	553.56238	583.78644	
1766	17.650	-108.47993	8.85996	-165.87270	271.31656	95.17934	-199.03546	-111.30982	106.34280	421.54550	258.20572	20.34391	460.08682	114.34982	1086.30713	-601.65509	-2.18322	504.42163	-361.91077	156.59184	497.54190	-360.15201	-3.38493	569.82922	580.83514	148.49776	553.73157	582.26434	
1767	17.660	-108.52882	8.69989	-166.01173	271.47614	87.11437	-201.50591	-110.37437	98.13720	419.34827	258.21838	20.63354	459.79419	113.15113	1085.86340	-603.36633	-2.39656	504.24716	-363.37186	156.24405	497.38229	-361.58868	-2.72971	569.71802	579.27100	148.78259	553.93182	580.72003	
1768	17.670	-108.71139	8.56981	-166.23392	271.11185	78.83604	-204.44347	-109.89433	90.45617	416.48047	258.17123	20.95837	459.49973	112.20151	1085.60144	-605.26282	-3.00951	504.06186	-364.71423	155.91238	497.18246	-363.22815	-2.16509	569.88690	577.99268	149.44202	553.97931	579.12366	
1769	17.680	-108.82249	8.50726	-166.41779	271.26636	70.81145	-207.01730	-108.66476	82.58990	413.74823	258.17712	21.28429	459.27646	110.94646	1085.53149	-606.90137	-3.12177	503.98788	-366.46548	155.57130	497.16400	-364.83234	-1.51462	569.72040	576.31659	150.34491	553.90356	577.07043	
1770	17.690	-108.89870	8.24319	-166.49748	271.24463	62.34714	-209.73883	-107.61552	74.20424	411.38077	258.11169	21.45896	459.04974	110.22245	1085.38806	-608.66559	-3.57445	503.75635	-367.95416	154.61749	497.15137	-366.52042	-0.84611	569.65521	574.68085	150.72784	554.11597	575.27563	
1771	17.700	-109.01820	7.93911	-166.66104	270.74219	54.09933	-212.75282	-107.12023	66.46711	408.88095	258.17819	21.62883	458.89606	109.44309	1085.31421	-610.47894	-3.78712	503.28708	-369.28027	154.24132	496.97913	-368.39279	-0.16522	569.58197	573.01428	151.23735	554.23322	573.56757	
1772	17.710	-109.05399	7.70984	-166.80096	270.81851	46.53022	-215.45363	-106.14133	58.22632	406.82889	258.15741	22.00151	458.50677	108.74221	1085.38293	-612.18762	-4.25846	502.84641	-371.11691	153.74104	496.84058	-370.35132	0.72593	569.60284	571.25226	151.42528	554.46899	571.60883	
1773	17.720	-109.11002	7.63010	-166.95332	271.74136	39.79431	-217.37637	-105.43216	50.97571	405.09027	258.15979	22.45554	458.36990	107.87014	1085.34448	-614.29895	-4.69137	502.60474	-373.12836	153.41516	496.70120	-372.42252	1.13957	569.60046	569.31415	152.61742	554.58551	569.65222	
1774	17.730	-109.09635	7.48864	-167.14449	272.41095	32.89593	-219.48695	-104.41155	44.07331	403.17065	258.15732	22.84158	457.90796	107.08461	1084.96362	-616.48212	-4.70800	502.17819	-374.91962	153.08383	496.37567	-374.49582	1.91606	569.53076	567.38458	153.33888	554.64172	567.58197	
1775	17.740	-109.22007	7.21677	-167.42288	273.42026	26.69458	-221.73311	-103.56654	37.52555	401.26569	258.15854	23.05024	457.62878	105.89782	1084.50696	-618.66486	-4.81759	501.84897	-376.97626	153.42052	496.02261	-376.40347	2.63265	569.40662	565.45679	154.35594	554.85889	565.57709	
1776	17.750	-109.21117	6.93343	-167.50056	273.53156	19.77402	-224.26643	-102.36373	30.81083	399.20834	258.12469	23.35136	457.33072	104.62486	1083.80505	-620.98712	-5.10025	501.33234	-378.83057	153.83856	495.73105	-378.63596	3.51579	569.36877	563.51794	154.36438	554.68225	563.26215	
1777	17.760	-109.25308	6.77299	-167.58353	274.76871	13.41153	-226.21959	-101.84469	26.18450	396.69604	258.24002	23.66858	457.32239	103.66379	1083.04773	-623.68158	-5.00714	500.95395	-380.72787	153.82634	495.32635	-380.66455	4.38014	569.42255	561.51434	155.40746	555.02423	561.34009	
1778	17.770	-109.27869	6.54975	-167.87372	275.16232	11.82627	-229.00232	-102.34606	24.77383	396.97302	258.18140	24.11242	456.95178	102.57600	1082.38232	-626.46631	-4.90933	500.46439	-382.79294	153.95135	494.87631	-382.93271	5.53255	570.03021	559.42554	155.96596	555.66876	558.92981	
1779	17.780	-109.21841	6.55626	-168.04692	275.53391	9.06121	-228.53816	-102.71339	25.70268	396.26550	258.19482	24.80634	456.53119	101.67569	1081.78418	-629.33313	-5.19742	499.86649	-384.74307	153.06363	494.78116	-384.58871	6.74213	571.92902	557.22449	156.88545	557.57056	556.64008	
1780	17.790	-109.05819	6.37811	-168.23460	275.57483	8.86886	-229.34386	-101.58661	27.59713	396.34055	258.08292	25.39595	456.06686	101.06188	1081.41772	-632.80792	-5.19810	499.42346	-386.16779	152.53912	494.75830	-386.68921	7.67551	573.95825	555.14148	157.72089	560.02429	554.38269	
1781	17.800	-108.62404	7.94502	-169.03545	275.64069	8.00484	-229.10748	-101.62977	27.84621	396.15982	258.24451	27.30362	455.20026	100.25871	1080.97253	-636.93176	-5.42396	499.54291	-388.05630	152.53795	495.18979	-388.65274	8.74271	575.93011	553.25140	158.86766	561.82672	552.38361	
1782	17.810	-104.86683	12.53840	-168.52974	275.76691	6.88767	-230.02094	-101.46557	27.61692	395.61734	256.24481	30.90304	456.58328	99.45303	1079.69800	-640.37714	-5.65891	500.08124	-390.03366	152.57202	495.48013	-390.84613	9.42167	577.14856	551.44989	159.49098	563.06079	550.27765	
1783	17.820	-101.81815	15.95344	-165.72034	275.95352	6.80006	-229.91687	-101.16418	27.73317	395.03281	253.23448	36.72979	458.61404	98.25424	1077.95239	-643.34064	-5.79448	500.40201	-391.82898	152.33279	495.73392	-392.70129	10.15127	577.92480	549.44312	160.76521	563.92584	548.61688	
1784	17.830	-99.34948	22.54354	-164.93254	276.11292	6.32902	-230.28143	-100.90040	28.00760	394.94406	249.03233	45.46082	457.54776	96.66204	1077.14648	-645.65790	-5.92193	500.21765	-393.49512	153.23004	495.62927	-394.66824	10.65988	578.91931	547.62927	160.56099	565.11096	546.20184	
1785	17.840	-99.99068	34.61486	-168.19888	276.20712	5.80170	-230.69153	-100.35625	28.81523	394.62076	247.49911	56.42868	456.18463	95.20698	1077.22717	-647.70898	-5.98618	499.66293	-395.28751	152.97755	495.15646	-396.45776	10.93057	580.02332	545.93701	161.03899	566.45398	544.53589	
1786	17.850	-100.98959	44.09882	-170.48351	276.31433	5.36474	-230.75676	-100.32335	29.04478	394.55704	248.26599	68.45538	452.31451	94.35046	1077.58313	-649.68353	-6.20103	498.67001	-396.55417	153.14339	494.30627	-397.70422	10.88434	580.95026	544.35522	160.98122	566.96997	542.73712	
1787	17.860	-103.02986	55.10865	-174.38515	276.36176	5.04664	-231.23512	-100.33898	29.13916	394.06967	250.93661	80.62321	447.67865	93.63058	1077.63086	-651.01904	-6.11434	497.91113	-398.09845	153.12642	493.31879	-399.07019	10.76472	581.50885	542.74347	160.99258	567.90594	541.79022	
1788	17.870	-105.43603	67.34329	-178.98329	276.50662	4.83489	-231.52603	-100.37144	29.25050	393.74249	253.21014	92.81929	442.64401	93.67573	1077.09778	-652.68481	-6.07933	496.88629	-399.19626	152.58383	492.72031	-400.75168	9.61779	581.82483	541.29675	159.80470	568.23755	540.14667	
